<?xml version="1.0" encoding="UTF-8"?> <svg xmlns="http://www.w3.org/2000/svg" xmlns:xlink="http://www.w3.org/1999/xlink" id="Layer_1" x="0px" y="0px" viewBox="0 0 1026.382 1716.249" xml:space="preserve"> <g> <path d="M509.126,275.816c5.306,0.068,10.618,0.081,15.931-0.006c0,0.002,9.005,375.816,9.005,375.816 c0.485-0.622,107.777-125.978,167.655-124.753c-0.205,5.703,0.211,11.419-0.099,17.11 c-10.128,10.872-114.601,88.246-148.944,174.848c-15.334,39.524-9.265,54.188-8.527,103.373 c0.968,10.762,11.973,414.399,65.039,826.775c-2.948,2.327-6.634,3.537-9.88,5.411c-11.341,4.919,16.469,3.562-154.262,3.562 c-3.16-0.051-16.964,1.434-19.549-11.289c-2.351-7.911,1.985-6.026,12.902-103.088c30.935-279.513,51.276-864.413,52.155-873.965 c0.583-34.652,17.495-92.549-90.421-215.764c-26.815-30.742-65.395-67.211-67.67-69.488c17.564,0.037,16.602-2.336,42.343,11.071 c46.842,25.643,91.39,73.279,125.764,114.004C500.568,509.434,506.985,374.241,509.126,275.816z"></path> <g> <path d="M643.783,722.002c-43.07,99.125,26.926,210.345,134.827,214.519C821.68,837.395,751.684,726.176,643.783,722.002z"></path> <path d="M750.447,584.739c30.723,103.619,155.833,143.826,241.174,77.665C960.898,558.785,835.788,518.579,750.447,584.739z"></path> <path d="M743.926,411.027c90.14,59.629,211.825,10.009,234.672-95.528C888.458,255.87,766.774,305.49,743.926,411.027z"></path> <path d="M627.271,282.148c107.38-12.263,168.701-128.491,118.365-224.023C638.256,70.387,576.935,186.615,627.271,282.148z"></path> </g> <g> <path d="M382.599,722.002c43.07,99.125-26.926,210.345-134.827,214.519C204.701,837.395,274.697,726.176,382.599,722.002z"></path> <path d="M275.934,584.739c-30.723,103.619-155.833,143.826-241.174,77.665C65.484,558.785,190.594,518.579,275.934,584.739z"></path> <path d="M282.455,411.027c-90.14,59.629-211.825,10.009-234.672-95.528C137.923,255.87,259.608,305.49,282.455,411.027z"></path> <path d="M399.111,282.148C291.731,269.885,230.41,153.657,280.746,58.125C388.126,70.387,449.447,186.615,399.111,282.148z"></path> </g> </g> </svg> 